<svg width="20" height="20" viewBox="0 0 20 20" fill="none" xmlns="http://www.w3.org/2000/svg">
<g clip-path="url(#clip0_103_5186)">
<path d="M20 13.3333V11.0249C20.0023 10.7595 19.9008 10.5037 19.717 10.3122C19.5333 10.1207 19.2819 10.0086 19.0167 9.99992H7.5V8.33325C7.5 8.11224 7.4122 7.90028 7.25592 7.744C7.09964 7.58772 6.88768 7.49992 6.66667 7.49992H2.5C2.27899 7.49992 2.06702 7.58772 1.91074 7.744C1.75446 7.90028 1.66667 8.11224 1.66667 8.33325V9.99992H0.833333V3.33325H0V16.6666H0.833333V14.9999H19.1667V16.6666H20V14.1666H0.833333V10.8749H19.0167C19.0564 10.8749 19.0946 10.8907 19.1227 10.9189C19.1509 10.947 19.1667 10.9851 19.1667 11.0249V13.3333H20ZM2.5 8.33325H6.66667V9.99992H2.5V8.33325Z" fill="#073937"/>
</g>
<defs>
<clipPath id="clip0_103_5186">
<rect width="20" height="20" fill="white"/>
</clipPath>
</defs>
</svg>
