<svg width="21" height="15" viewBox="0 0 21 15" fill="none" xmlns="http://www.w3.org/2000/svg">
<path d="M18.625 0C19.6406 0 20.5 0.859375 20.5 1.875C20.5 2.5 20.1875 3.04688 19.7188 3.39844L11.2422 9.76562C10.7734 10.1172 10.1875 10.1172 9.71875 9.76562L1.24219 3.39844C0.773438 3.04688 0.5 2.5 0.5 1.875C0.5 0.859375 1.32031 0 2.375 0H18.625ZM8.97656 10.7812C9.875 11.4453 11.0859 11.4453 11.9844 10.7812L20.5 4.375V12.5C20.5 13.9062 19.3672 15 18 15H3C1.59375 15 0.5 13.9062 0.5 12.5V4.375L8.97656 10.7812Z" fill="#F3ECDC"/>
</svg>
