<svg width="106" height="129" viewBox="0 0 106 129" fill="none" xmlns="http://www.w3.org/2000/svg">
<path d="M24.0909 0L14.4545 10.75L24.0909 21.5L33.7273 10.75L24.0909 0ZM33.7273 10.75L43.3636 21.5L53 10.75L43.3636 0L33.7273 10.75ZM53 10.75L62.6364 21.5L72.2727 10.75L62.6364 0L53 10.75ZM72.2727 10.75L81.9091 21.5L91.5455 10.75L81.9091 0L72.2727 10.75ZM81.9091 21.5H0V129H106V21.5H81.9091ZM9.63636 32.25H96.3636V118.25H67.4545V91.375H38.5455V118.25H9.63636V32.25ZM19.2727 43V53.75H28.9091V43H19.2727ZM38.5455 43V53.75H48.1818V43H38.5455ZM57.8182 43V53.75H67.4545V43H57.8182ZM77.0909 43V53.75H86.7273V43H77.0909ZM19.2727 59.125V69.875H28.9091V59.125H19.2727ZM38.5455 59.125V69.875H48.1818V59.125H38.5455ZM57.8182 59.125V69.875H67.4545V59.125H57.8182ZM77.0909 59.125V69.875H86.7273V59.125H77.0909ZM19.2727 75.25V86H28.9091V75.25H19.2727ZM38.5455 75.25V86H48.1818V75.25H38.5455ZM57.8182 75.25V86H67.4545V75.25H57.8182ZM77.0909 75.25V86H86.7273V75.25H77.0909ZM19.2727 91.375V102.125H28.9091V91.375H19.2727ZM77.0909 91.375V102.125H86.7273V91.375H77.0909ZM48.1818 102.125H57.8182V118.25H48.1818V102.125Z" fill="#A3B18A"/>
</svg>
