<svg width="18" height="19" viewBox="0 0 18 19" fill="none" xmlns="http://www.w3.org/2000/svg">
<path d="M15.5 0.75C16.8672 0.75 18 1.88281 18 3.25V15.75C18 17.1562 16.8672 18.25 15.5 18.25H3C1.59375 18.25 0.5 17.1562 0.5 15.75V3.25C0.5 1.88281 1.59375 0.75 3 0.75H15.5ZM14.2109 12.0781C14.2891 11.8047 14.1328 11.4922 13.8594 11.375L11.75 10.4766C11.4766 10.3594 11.2031 10.4375 11.0469 10.6328L10.1875 11.6875C8.82031 11.0234 7.72656 9.92969 7.0625 8.5625L8.11719 7.70312C8.3125 7.54688 8.39062 7.27344 8.27344 7L7.375 4.89062C7.25781 4.61719 6.94531 4.46094 6.67188 4.53906L4.71875 4.96875C4.44531 5.04688 4.25 5.28125 4.25 5.59375C4.25 10.5156 8.23438 14.5 13.1562 14.5C13.4688 14.5 13.7031 14.3438 13.7422 14.0312L14.2109 12.0781Z" fill="#F3ECDC"/>
</svg>
