<svg width="12" height="21" viewBox="0 0 12 21" fill="none" xmlns="http://www.w3.org/2000/svg">
<path d="M12 6.125C12 9.25 9.46094 11.75 6.375 11.75C3.25 11.75 0.75 9.25 0.75 6.125C0.75 3.03906 3.25 0.5 6.375 0.5C9.46094 0.5 12 3.03906 12 6.125ZM7 3C7 2.6875 6.6875 2.375 6.375 2.375C4.26562 2.375 2.625 4.05469 2.625 6.125C2.625 6.47656 2.89844 6.75 3.25 6.75C3.5625 6.75 3.875 6.47656 3.875 6.125C3.875 4.75781 4.96875 3.625 6.375 3.625C6.6875 3.625 7 3.35156 7 3ZM5.125 19.25V12.9219C5.51562 12.9609 5.94531 13 6.375 13C6.76562 13 7.19531 12.9609 7.625 12.9219V19.25C7.625 19.9531 7.03906 20.5 6.375 20.5C5.67188 20.5 5.125 19.9531 5.125 19.25Z" fill="#F3ECDC"/>
</svg>
