<svg width="114" height="104" viewBox="0 0 114 104" fill="none" xmlns="http://www.w3.org/2000/svg">
<path d="M110.96 2.48008C105.28 -2.67992 96.05 1.83508 91.79 5.70508L66.9399 30.2151L49.9 23.7651L54.16 19.8951C55.58 18.6051 55.58 16.6701 54.16 15.3801C53.45 14.0901 51.32 14.7351 49.9 15.3801L43.51 21.1851L30.73 16.0251L34.28 12.8001C35.7 11.5101 35.7 9.57508 34.28 8.93008C32.86 7.64008 30.73 7.64008 29.31 8.93008L23.63 14.0901L20.08 12.8001C14.4 10.2201 8.00995 10.8651 3.74995 15.3801L44.93 52.7901L28.6 68.2701L3.74995 66.9801L0.199951 71.4951L22.21 83.1051L34.99 103.1L39.96 99.8751L38.54 77.3001L56.29 62.4651L97.47 99.8751C101.73 96.0051 103.15 89.5551 100.31 85.0401L98.89 81.8151L104.57 76.6551C105.99 75.3651 105.99 73.4301 104.57 72.1401C103.15 70.8501 101.02 70.8501 99.6 72.1401L96.05 75.3651L90.37 63.1101L96.76 57.3051C98.18 56.0151 98.18 54.0801 96.76 52.7901C95.34 51.5001 93.21 51.5001 92.5 52.7901L88.24 56.6601L81.14 41.1801L108.12 19.2501C112.38 16.0251 116.64 6.99508 110.96 2.48008Z" fill="#A3B18A"/>
</svg>
