<svg width="25" height="25" viewBox="0 0 25 25" fill="none" xmlns="http://www.w3.org/2000/svg">
<path d="M12.4999 19.2794C9.53702 19.2794 7.13859 16.5919 6.91788 13.1861L2.82023 9.47504C2.28156 10.267 1.78585 11.1042 1.38585 12.0197C1.29649 12.2269 1.24994 12.4557 1.24994 12.6878C1.24994 12.92 1.29649 13.1488 1.38585 13.356C3.50421 18.1996 7.69796 21.4767 12.4999 21.4767C13.5511 21.4767 14.5652 21.2936 15.5425 20.9979L13.5155 19.1599C13.1808 19.2357 12.8408 19.2757 12.4999 19.2794ZM24.7585 21.939L20.4402 18.0279C21.7519 16.7324 22.8308 15.1441 23.614 13.3555C23.7033 13.1484 23.7499 12.9195 23.7499 12.6874C23.7499 12.4553 23.7033 12.2264 23.614 12.0193C21.4956 7.17569 17.3019 3.89856 12.4999 3.89856C10.4888 3.90141 8.51031 4.49474 6.74523 5.62433L1.7757 1.12314C1.71089 1.06404 1.63679 1.02049 1.55762 0.994974C1.47844 0.969456 1.39576 0.96247 1.31428 0.974416C1.2328 0.986362 1.15413 1.017 1.08277 1.06459C1.0114 1.11218 0.948736 1.17579 0.898353 1.25177L0.131556 2.40854C0.0298368 2.56188 -0.015743 2.75629 0.00484145 2.94901C0.0254259 3.14174 0.110489 3.31698 0.241322 3.43622L23.2241 24.2521C23.2889 24.3112 23.363 24.3547 23.4422 24.3803C23.5214 24.4058 23.6041 24.4128 23.6856 24.4008C23.767 24.3889 23.8457 24.3582 23.9171 24.3106C23.9884 24.2631 24.0511 24.1995 24.1015 24.1235L24.8687 22.9667C24.9703 22.8133 25.0159 22.6189 24.9952 22.4261C24.9745 22.2334 24.8894 22.0582 24.7585 21.939ZM17.5819 15.4388L16.0468 14.0481C16.1761 13.6102 16.2446 13.1509 16.2499 12.6876C16.2575 12.0093 16.1293 11.3384 15.8755 10.7287C15.6217 10.1191 15.2495 9.58763 14.7886 9.17713C14.3278 8.76663 13.7912 8.48852 13.2221 8.36511C12.6529 8.24171 12.0669 8.27646 11.5112 8.46658C11.7468 8.84062 11.8742 9.29307 11.8749 9.75793C11.8691 9.91263 11.8489 10.0661 11.8148 10.2157L8.93937 7.61148C9.93819 6.63333 11.1982 6.09695 12.4999 6.09582C13.2387 6.09534 13.9704 6.26552 14.653 6.59661C15.3356 6.92771 15.9559 7.41324 16.4783 8.02544C17.0007 8.63764 17.415 9.36451 17.6976 10.1645C17.9801 10.9645 18.1253 11.8218 18.1249 12.6876C18.1249 13.6778 17.9183 14.6006 17.5819 15.4392V15.4388Z" fill="black"/>
</svg>
